<mxfile host="" modified="2021-02-27T16:23:07.548Z" agent="5.0 (Macintosh; Intel Mac OS X 10_16_0) AppleWebKit/537.36 (KHTML, like Gecko) Chrome/84.0.4147.105 Safari/537.36" version="13.7.9" etag="CtBNUlCjCTfylr_wBgwG" type="embed"><diagram id="CAE85zf8jpI4JBlUSn41" name="BeanDefinition"><mxGraphModel dx="1285" dy="1528" grid="1" gridSize="10" guides="1" tooltips="1" connect="1" arrows="1" fold="1" page="1" pageScale="1" pageWidth="850" pageHeight="1100" math="0" shadow="0"><root><mxCell id="0"/><mxCell id="1" parent="0"/><mxCell id="2" style="edgeStyle=orthogonalEdgeStyle;curved=1;rounded=0;orthogonalLoop=1;jettySize=auto;html=1;exitX=0.25;exitY=0;exitDx=0;exitDy=0;entryX=0.5;entryY=1;entryDx=0;entryDy=0;" edge="1" parent="1" source="4" target="47"><mxGeometry relative="1" as="geometry"/></mxCell><mxCell id="3" style="edgeStyle=orthogonalEdgeStyle;curved=1;rounded=0;orthogonalLoop=1;jettySize=auto;html=1;exitX=0.75;exitY=0;exitDx=0;exitDy=0;entryX=0.5;entryY=1;entryDx=0;entryDy=0;" edge="1" parent="1" source="4" target="49"><mxGeometry relative="1" as="geometry"/></mxCell><mxCell id="4" value="[beans] &lt;&lt;interface&gt;&gt;&#10;BeanDefinition&#10;声明 Bean 的定义" style="swimlane;fontStyle=1;align=center;verticalAlign=top;childLayout=stackLayout;horizontal=1;startSize=50;horizontalStack=0;resizeParent=1;resizeParentMax=0;resizeLast=0;collapsible=1;marginBottom=0;rounded=1;shadow=0;glass=0;sketch=0;html=0;fillColor=#e51400;strokeColor=#B20000;fontColor=#ffffff;" vertex="1" parent="1"><mxGeometry x="310" y="-105" width="207.5" height="250" as="geometry"><mxRectangle x="200" y="1001" width="260" height="26" as="alternateBounds"/></mxGeometry></mxCell><mxCell id="5" value="String BeanClassName 类名" style="rounded=0;whiteSpace=wrap;shadow=0;glass=0;sketch=0;align=left;verticalAlign=top;fillColor=#f8cecc;strokeColor=#b85450;" vertex="1" parent="4"><mxGeometry y="50" width="207.5" height="20" as="geometry"/></mxCell><mxCell id="6" value="String Scope" style="rounded=0;whiteSpace=wrap;shadow=0;glass=0;sketch=0;align=left;verticalAlign=top;" vertex="1" parent="4"><mxGeometry y="70" width="207.5" height="20" as="geometry"/></mxCell><mxCell id="7" value="Boolean LazyInit" style="rounded=0;whiteSpace=wrap;shadow=0;glass=0;sketch=0;align=left;verticalAlign=top;" vertex="1" parent="4"><mxGeometry y="90" width="207.5" height="20" as="geometry"/></mxCell><mxCell id="8" value="String[] DependsOn 依赖" style="rounded=0;whiteSpace=wrap;shadow=0;glass=0;sketch=0;align=left;verticalAlign=top;fillColor=#f8cecc;strokeColor=#b85450;" vertex="1" parent="4"><mxGeometry y="110" width="207.5" height="20" as="geometry"/></mxCell><mxCell id="9" value="boolean AutowireCandidate" style="rounded=0;whiteSpace=wrap;shadow=0;glass=0;sketch=0;align=left;verticalAlign=top;" vertex="1" parent="4"><mxGeometry y="130" width="207.5" height="20" as="geometry"/></mxCell><mxCell id="10" value="boolean Primary" style="rounded=0;whiteSpace=wrap;shadow=0;glass=0;sketch=0;align=left;verticalAlign=top;" vertex="1" parent="4"><mxGeometry y="150" width="207.5" height="20" as="geometry"/></mxCell><mxCell id="11" value="String FactoryBeanName 工厂名" style="rounded=0;whiteSpace=wrap;shadow=0;glass=0;sketch=0;align=left;verticalAlign=top;fillColor=#f8cecc;strokeColor=#b85450;" vertex="1" parent="4"><mxGeometry y="170" width="207.5" height="20" as="geometry"/></mxCell><mxCell id="12" value="ConstructorArgumentValues 构造函数" style="rounded=0;whiteSpace=wrap;shadow=0;glass=0;sketch=0;align=left;verticalAlign=top;fillColor=#f8cecc;strokeColor=#b85450;" vertex="1" parent="4"><mxGeometry y="190" width="207.5" height="20" as="geometry"/></mxCell><mxCell id="13" value="PropertyValues 属性值" style="rounded=0;whiteSpace=wrap;shadow=0;glass=0;sketch=0;align=left;verticalAlign=top;fillColor=#f8cecc;strokeColor=#b85450;" vertex="1" parent="4"><mxGeometry y="210" width="207.5" height="20" as="geometry"/></mxCell><mxCell id="14" value="..." style="rounded=0;whiteSpace=wrap;shadow=0;glass=0;sketch=0;align=left;verticalAlign=top;" vertex="1" parent="4"><mxGeometry y="230" width="207.5" height="20" as="geometry"/></mxCell><mxCell id="15" style="edgeStyle=orthogonalEdgeStyle;curved=1;rounded=0;orthogonalLoop=1;jettySize=auto;html=1;exitX=0.5;exitY=0;exitDx=0;exitDy=0;entryX=0.25;entryY=1;entryDx=0;entryDy=0;" edge="1" parent="1" source="16" target="4"><mxGeometry relative="1" as="geometry"/></mxCell><mxCell id="16" value="[beans] &lt;&lt;interface&gt;&gt;&#10;AnnotatedBeanDefinition&#10;注解信息的支持" style="swimlane;fontStyle=1;align=center;verticalAlign=top;childLayout=stackLayout;horizontal=1;startSize=50;horizontalStack=0;resizeParent=1;resizeParentMax=0;resizeLast=0;collapsible=1;marginBottom=0;rounded=1;shadow=0;glass=0;sketch=0;html=0;fillColor=#f0a30a;strokeColor=#BD7000;fontColor=#ffffff;" vertex="1" parent="1"><mxGeometry x="-60" y="260" width="330" height="90" as="geometry"><mxRectangle x="200" y="1001" width="260" height="26" as="alternateBounds"/></mxGeometry></mxCell><mxCell id="17" value="AnnotationMetadata getMetadata 获取注解元信息" style="rounded=0;whiteSpace=wrap;shadow=0;glass=0;sketch=0;align=left;verticalAlign=top;fillColor=#f8cecc;strokeColor=#b85450;" vertex="1" parent="16"><mxGeometry y="50" width="330" height="20" as="geometry"/></mxCell><mxCell id="18" value="MethodMetadata getFactoryMethodMetadata 工厂方法信息" style="rounded=0;whiteSpace=wrap;shadow=0;glass=0;sketch=0;align=left;verticalAlign=top;" vertex="1" parent="16"><mxGeometry y="70" width="330" height="20" as="geometry"/></mxCell><mxCell id="19" style="edgeStyle=orthogonalEdgeStyle;curved=1;rounded=0;orthogonalLoop=1;jettySize=auto;html=1;exitX=0.5;exitY=0;exitDx=0;exitDy=0;entryX=0.75;entryY=1;entryDx=0;entryDy=0;" edge="1" parent="1" source="21" target="4"><mxGeometry relative="1" as="geometry"/></mxCell><mxCell id="20" style="edgeStyle=orthogonalEdgeStyle;curved=1;rounded=0;sketch=0;orthogonalLoop=1;jettySize=auto;html=1;exitX=0.75;exitY=0;exitDx=0;exitDy=0;entryX=0.5;entryY=1;entryDx=0;entryDy=0;shadow=0;fillColor=#f5f5f5;strokeColor=#ABABAB;" edge="1" parent="1" source="21" target="53"><mxGeometry relative="1" as="geometry"/></mxCell><mxCell id="21" value="[beans] &lt;&lt;abstract&gt;&gt;&#10;AbstractBeanDefinition&#10;保存 Bean 的定义&#10;&#10;" style="swimlane;fontStyle=1;align=center;verticalAlign=top;childLayout=stackLayout;horizontal=1;startSize=50;horizontalStack=0;resizeParent=1;resizeParentMax=0;resizeLast=0;collapsible=1;marginBottom=0;rounded=1;shadow=0;glass=0;sketch=0;html=0;fillColor=#e51400;strokeColor=#B20000;fontColor=#ffffff;" vertex="1" parent="1"><mxGeometry x="540" y="200" width="180" height="60" as="geometry"><mxRectangle x="200" y="1001" width="260" height="26" as="alternateBounds"/></mxGeometry></mxCell><mxCell id="22" value="" style="rounded=0;whiteSpace=wrap;shadow=0;glass=0;sketch=0;align=left;verticalAlign=top;" vertex="1" parent="21"><mxGeometry y="50" width="180" height="10" as="geometry"/></mxCell><mxCell id="23" style="edgeStyle=orthogonalEdgeStyle;rounded=0;orthogonalLoop=1;jettySize=auto;html=1;exitX=0.25;exitY=0;exitDx=0;exitDy=0;entryX=0.75;entryY=1;entryDx=0;entryDy=0;curved=1;" edge="1" parent="1" source="25" target="16"><mxGeometry relative="1" as="geometry"><mxPoint x="50" y="330" as="targetPoint"/></mxGeometry></mxCell><mxCell id="24" style="edgeStyle=orthogonalEdgeStyle;curved=1;rounded=0;orthogonalLoop=1;jettySize=auto;html=1;exitX=0.75;exitY=0;exitDx=0;exitDy=0;entryX=0.25;entryY=1;entryDx=0;entryDy=0;shadow=1;sketch=1;" edge="1" parent="1" source="25" target="32"><mxGeometry relative="1" as="geometry"/></mxCell><mxCell id="25" value="[context] [private]&#10;ConfigurationClassBeanDefinition" style="swimlane;fontStyle=1;align=center;verticalAlign=top;childLayout=stackLayout;horizontal=1;startSize=50;horizontalStack=0;resizeParent=1;resizeParentMax=0;resizeLast=0;collapsible=1;marginBottom=0;rounded=1;shadow=0;glass=0;sketch=0;html=0;flipH=0;flipV=0;fillColor=#f5f5f5;strokeColor=#666666;fontColor=#333333;" vertex="1" parent="1"><mxGeometry x="366" y="520" width="220" height="80" as="geometry"><mxRectangle x="200" y="1001" width="260" height="26" as="alternateBounds"/></mxGeometry></mxCell><mxCell id="26" value="" style="rounded=0;whiteSpace=wrap;shadow=0;glass=0;sketch=0;align=left;verticalAlign=top;" vertex="1" parent="25"><mxGeometry y="50" width="220" height="30" as="geometry"/></mxCell><mxCell id="27" style="edgeStyle=orthogonalEdgeStyle;rounded=0;orthogonalLoop=1;jettySize=auto;html=1;exitX=0.75;exitY=0;exitDx=0;exitDy=0;entryX=0.25;entryY=1;entryDx=0;entryDy=0;curved=1;shadow=1;sketch=1;" edge="1" parent="1" source="29" target="39"><mxGeometry relative="1" as="geometry"/></mxCell><mxCell id="28" style="edgeStyle=orthogonalEdgeStyle;curved=1;rounded=0;orthogonalLoop=1;jettySize=auto;html=1;exitX=0.5;exitY=0;exitDx=0;exitDy=0;entryX=0.25;entryY=1;entryDx=0;entryDy=0;" edge="1" parent="1" source="29" target="16"><mxGeometry relative="1" as="geometry"/></mxCell><mxCell id="29" value="[context]&#10;ScannedGenericBeanDefinition" style="swimlane;fontStyle=1;align=center;verticalAlign=top;childLayout=stackLayout;horizontal=1;startSize=50;horizontalStack=0;resizeParent=1;resizeParentMax=0;resizeLast=0;collapsible=1;marginBottom=0;rounded=1;shadow=0;glass=0;sketch=0;html=0;flipH=0;flipV=0;" vertex="1" parent="1"><mxGeometry x="-200" y="520" width="230" height="80" as="geometry"><mxRectangle x="200" y="1001" width="260" height="26" as="alternateBounds"/></mxGeometry></mxCell><mxCell id="30" value="" style="rounded=0;whiteSpace=wrap;shadow=0;glass=0;sketch=0;align=left;verticalAlign=top;" vertex="1" parent="29"><mxGeometry y="50" width="230" height="30" as="geometry"/></mxCell><mxCell id="31" style="edgeStyle=orthogonalEdgeStyle;curved=1;rounded=0;orthogonalLoop=1;jettySize=auto;html=1;exitX=0.5;exitY=0;exitDx=0;exitDy=0;entryX=0.5;entryY=1;entryDx=0;entryDy=0;" edge="1" parent="1" source="32" target="21"><mxGeometry relative="1" as="geometry"/></mxCell><mxCell id="32" value="[beans]&#10;RootBeanDefinition" style="swimlane;fontStyle=1;align=center;verticalAlign=top;childLayout=stackLayout;horizontal=1;startSize=50;horizontalStack=0;resizeParent=1;resizeParentMax=0;resizeLast=0;collapsible=1;marginBottom=0;rounded=1;shadow=0;glass=0;sketch=0;html=0;" vertex="1" parent="1"><mxGeometry x="540" y="330" width="180" height="80" as="geometry"><mxRectangle x="200" y="1001" width="260" height="26" as="alternateBounds"/></mxGeometry></mxCell><mxCell id="33" value="" style="rounded=0;whiteSpace=wrap;shadow=0;glass=0;sketch=0;align=left;verticalAlign=top;" vertex="1" parent="32"><mxGeometry y="50" width="180" height="30" as="geometry"/></mxCell><mxCell id="34" style="edgeStyle=orthogonalEdgeStyle;curved=1;rounded=0;orthogonalLoop=1;jettySize=auto;html=1;exitX=0.5;exitY=0;exitDx=0;exitDy=0;entryX=0.75;entryY=1;entryDx=0;entryDy=0;" edge="1" parent="1" source="35" target="21"><mxGeometry relative="1" as="geometry"/></mxCell><mxCell id="35" value="[beans]&#10;ChildBeanDefinition" style="swimlane;fontStyle=1;align=center;verticalAlign=top;childLayout=stackLayout;horizontal=1;startSize=50;horizontalStack=0;resizeParent=1;resizeParentMax=0;resizeLast=0;collapsible=1;marginBottom=0;rounded=1;shadow=0;glass=0;sketch=0;html=0;" vertex="1" parent="1"><mxGeometry x="760" y="330" width="180" height="80" as="geometry"><mxRectangle x="200" y="1001" width="260" height="26" as="alternateBounds"/></mxGeometry></mxCell><mxCell id="36" value="" style="rounded=0;whiteSpace=wrap;shadow=0;glass=0;sketch=0;align=left;verticalAlign=top;" vertex="1" parent="35"><mxGeometry y="50" width="180" height="30" as="geometry"/></mxCell><mxCell id="37" style="edgeStyle=orthogonalEdgeStyle;curved=1;rounded=0;orthogonalLoop=1;jettySize=auto;html=1;exitX=0.5;exitY=0;exitDx=0;exitDy=0;entryX=0.25;entryY=1;entryDx=0;entryDy=0;" edge="1" parent="1" source="38" target="21"><mxGeometry relative="1" as="geometry"/></mxCell><mxCell id="38" value="[beans]&#10;GenericBeanDefinition&#10;parentName 保存" style="swimlane;fontStyle=1;align=center;verticalAlign=top;childLayout=stackLayout;horizontal=1;startSize=50;horizontalStack=0;resizeParent=1;resizeParentMax=0;resizeLast=0;collapsible=1;marginBottom=0;rounded=1;shadow=0;glass=0;sketch=0;html=0;" vertex="1" parent="1"><mxGeometry x="305" y="330" width="180" height="60" as="geometry"><mxRectangle x="200" y="1001" width="260" height="26" as="alternateBounds"/></mxGeometry></mxCell><mxCell id="39" value="" style="rounded=0;whiteSpace=wrap;shadow=0;glass=0;sketch=0;align=left;verticalAlign=top;" vertex="1" parent="38"><mxGeometry y="50" width="180" height="10" as="geometry"/></mxCell><mxCell id="40" style="edgeStyle=orthogonalEdgeStyle;rounded=0;orthogonalLoop=1;jettySize=auto;html=1;exitX=0.25;exitY=0;exitDx=0;exitDy=0;entryX=0.5;entryY=1;entryDx=0;entryDy=0;curved=1;" edge="1" parent="1" source="42" target="16"><mxGeometry relative="1" as="geometry"/></mxCell><mxCell id="41" style="edgeStyle=orthogonalEdgeStyle;rounded=0;orthogonalLoop=1;jettySize=auto;html=1;exitX=0.5;exitY=0;exitDx=0;exitDy=0;entryX=0.5;entryY=1;entryDx=0;entryDy=0;curved=1;shadow=1;sketch=1;" edge="1" parent="1" source="42" target="38"><mxGeometry relative="1" as="geometry"/></mxCell><mxCell id="42" value="[beans]&#10;AnnotatedGenericBeanDefinition" style="swimlane;fontStyle=1;align=center;verticalAlign=top;childLayout=stackLayout;horizontal=1;startSize=50;horizontalStack=0;resizeParent=1;resizeParentMax=0;resizeLast=0;collapsible=1;marginBottom=0;rounded=1;shadow=0;glass=0;sketch=0;html=0;flipH=0;flipV=0;" vertex="1" parent="1"><mxGeometry x="60" y="520" width="230" height="80" as="geometry"><mxRectangle x="200" y="1001" width="260" height="26" as="alternateBounds"/></mxGeometry></mxCell><mxCell id="43" value="" style="rounded=0;whiteSpace=wrap;shadow=0;glass=0;sketch=0;align=left;verticalAlign=top;" vertex="1" parent="42"><mxGeometry y="50" width="230" height="30" as="geometry"/></mxCell><mxCell id="44" style="edgeStyle=orthogonalEdgeStyle;curved=1;rounded=0;orthogonalLoop=1;jettySize=auto;html=1;exitX=0.5;exitY=0;exitDx=0;exitDy=0;entryX=0.75;entryY=1;entryDx=0;entryDy=0;" edge="1" parent="1" source="45" target="32"><mxGeometry relative="1" as="geometry"><mxPoint x="660" y="420" as="targetPoint"/></mxGeometry></mxCell><mxCell id="45" value="[context] [private]&#10;ClassDerivedBeanDefinition" style="swimlane;fontStyle=1;align=center;verticalAlign=top;childLayout=stackLayout;horizontal=1;startSize=50;horizontalStack=0;resizeParent=1;resizeParentMax=0;resizeLast=0;collapsible=1;marginBottom=0;rounded=1;shadow=0;glass=0;sketch=0;html=0;flipH=0;flipV=0;fillColor=#f5f5f5;strokeColor=#666666;fontColor=#333333;" vertex="1" parent="1"><mxGeometry x="607" y="520" width="220" height="80" as="geometry"><mxRectangle x="200" y="1001" width="260" height="26" as="alternateBounds"/></mxGeometry></mxCell><mxCell id="46" value="" style="rounded=0;whiteSpace=wrap;shadow=0;glass=0;sketch=0;align=left;verticalAlign=top;" vertex="1" parent="45"><mxGeometry y="50" width="220" height="30" as="geometry"/></mxCell><mxCell id="47" value="[core] &lt;&lt;interface&gt;&gt;&#10;AttributeAccessor&#10;" style="swimlane;fontStyle=1;align=center;verticalAlign=top;childLayout=stackLayout;horizontal=1;startSize=50;horizontalStack=0;resizeParent=1;resizeParentMax=0;resizeLast=0;collapsible=1;marginBottom=0;rounded=1;shadow=0;glass=0;sketch=0;html=0;strokeColor=#666666;fillColor=#F5F5F5;swimlaneFillColor=none;gradientColor=#A8A8A8;" vertex="1" parent="1"><mxGeometry x="210" y="-230" width="170" height="60" as="geometry"><mxRectangle x="200" y="1001" width="260" height="26" as="alternateBounds"/></mxGeometry></mxCell><mxCell id="48" value="" style="rounded=0;whiteSpace=wrap;shadow=0;glass=0;sketch=0;align=left;verticalAlign=top;" vertex="1" parent="47"><mxGeometry y="50" width="170" height="10" as="geometry"/></mxCell><mxCell id="49" value="[beans ]&lt;&lt;interface&gt;&gt;&#10;BeanMetadataElement&#10;" style="swimlane;fontStyle=1;align=center;verticalAlign=top;childLayout=stackLayout;horizontal=1;startSize=50;horizontalStack=0;resizeParent=1;resizeParentMax=0;resizeLast=0;collapsible=1;marginBottom=0;rounded=1;shadow=0;glass=0;sketch=0;html=0;strokeColor=#666666;fillColor=#F5F5F5;swimlaneFillColor=none;gradientColor=#A8A8A8;" vertex="1" parent="1"><mxGeometry x="467.5" y="-230" width="170" height="60" as="geometry"><mxRectangle x="200" y="1001" width="260" height="26" as="alternateBounds"/></mxGeometry></mxCell><mxCell id="50" value="" style="rounded=0;whiteSpace=wrap;shadow=0;glass=0;sketch=0;align=left;verticalAlign=top;" vertex="1" parent="49"><mxGeometry y="50" width="170" height="10" as="geometry"/></mxCell><mxCell id="51" style="edgeStyle=orthogonalEdgeStyle;curved=1;rounded=0;sketch=0;orthogonalLoop=1;jettySize=auto;html=1;exitX=0.25;exitY=0;exitDx=0;exitDy=0;entryX=0.5;entryY=1;entryDx=0;entryDy=0;shadow=0;fillColor=#f5f5f5;strokeColor=#ABABAB;" edge="1" parent="1" source="53" target="56"><mxGeometry relative="1" as="geometry"/></mxCell><mxCell id="52" style="edgeStyle=orthogonalEdgeStyle;curved=1;rounded=0;sketch=0;orthogonalLoop=1;jettySize=auto;html=1;exitX=0.5;exitY=0;exitDx=0;exitDy=0;entryX=1;entryY=0.5;entryDx=0;entryDy=0;shadow=0;fillColor=#f5f5f5;strokeColor=#ABABAB;" edge="1" parent="1" source="53" target="49"><mxGeometry relative="1" as="geometry"/></mxCell><mxCell id="53" value="[beans]&#10;BeanMetadataAttributeAccessor&#10;" style="swimlane;fontStyle=1;align=center;verticalAlign=top;childLayout=stackLayout;horizontal=1;startSize=50;horizontalStack=0;resizeParent=1;resizeParentMax=0;resizeLast=0;collapsible=1;marginBottom=0;rounded=1;shadow=0;glass=0;sketch=0;html=0;strokeColor=#666666;fillColor=#F5F5F5;swimlaneFillColor=none;gradientColor=#A8A8A8;" vertex="1" parent="1"><mxGeometry x="690" y="-10" width="205" height="60" as="geometry"><mxRectangle x="200" y="1001" width="260" height="26" as="alternateBounds"/></mxGeometry></mxCell><mxCell id="54" value="" style="rounded=0;whiteSpace=wrap;shadow=0;glass=0;sketch=0;align=left;verticalAlign=top;" vertex="1" parent="53"><mxGeometry y="50" width="205" height="10" as="geometry"/></mxCell><mxCell id="55" style="edgeStyle=orthogonalEdgeStyle;curved=1;rounded=0;sketch=0;orthogonalLoop=1;jettySize=auto;html=1;exitX=0.5;exitY=0;exitDx=0;exitDy=0;entryX=0.75;entryY=1;entryDx=0;entryDy=0;shadow=0;fillColor=#f5f5f5;strokeColor=#ABABAB;" edge="1" parent="1" source="56" target="47"><mxGeometry relative="1" as="geometry"/></mxCell><mxCell id="56" value="[core] &lt;&lt;abstract&gt;&gt;&#10;AttributeAccessorSupport&#10;封装 Map 存储属性" style="swimlane;fontStyle=1;align=center;verticalAlign=top;childLayout=stackLayout;horizontal=1;startSize=50;horizontalStack=0;resizeParent=1;resizeParentMax=0;resizeLast=0;collapsible=1;marginBottom=0;rounded=1;shadow=0;glass=0;sketch=0;html=0;strokeColor=#666666;fillColor=#F5F5F5;swimlaneFillColor=none;gradientColor=#A8A8A8;" vertex="1" parent="1"><mxGeometry x="555" y="-110" width="205" height="60" as="geometry"><mxRectangle x="200" y="1001" width="260" height="26" as="alternateBounds"/></mxGeometry></mxCell><mxCell id="57" value="" style="rounded=0;whiteSpace=wrap;shadow=0;glass=0;sketch=0;align=left;verticalAlign=top;" vertex="1" parent="56"><mxGeometry y="50" width="205" height="10" as="geometry"/></mxCell><mxCell id="58" style="edgeStyle=orthogonalEdgeStyle;curved=1;rounded=0;sketch=0;orthogonalLoop=1;jettySize=auto;html=1;exitX=1;exitY=0.5;exitDx=0;exitDy=0;entryX=0;entryY=0.25;entryDx=0;entryDy=0;shadow=0;strokeColor=#ABABAB;" edge="1" parent="1" source="59" target="17"><mxGeometry relative="1" as="geometry"/></mxCell><mxCell id="59" value="@since 5.2&#10;AnnotationMetadata.introspect(class)" style="rounded=1;whiteSpace=wrap;gradientColor=#97d077;fillColor=#d5e8d4;strokeColor=#82b366;" vertex="1" parent="1"><mxGeometry x="-400" y="230" width="250" height="40" as="geometry"/></mxCell><mxCell id="60" style="edgeStyle=orthogonalEdgeStyle;curved=1;rounded=0;sketch=0;orthogonalLoop=1;jettySize=auto;html=1;exitX=1;exitY=0.5;exitDx=0;exitDy=0;entryX=0;entryY=0.75;entryDx=0;entryDy=0;shadow=0;strokeColor=#ABABAB;" edge="1" parent="1" source="61" target="17"><mxGeometry relative="1" as="geometry"/></mxCell><mxCell id="61" value="@since 2.5&#10;StandardAnnotationMetadata.from(type)" style="rounded=1;whiteSpace=wrap;gradientColor=#97d077;fillColor=#d5e8d4;strokeColor=#82b366;" vertex="1" parent="1"><mxGeometry x="-400" y="280" width="250" height="40" as="geometry"/></mxCell><mxCell id="62" style="edgeStyle=orthogonalEdgeStyle;curved=1;rounded=0;sketch=0;orthogonalLoop=1;jettySize=auto;html=1;exitX=1;exitY=0.5;exitDx=0;exitDy=0;entryX=0;entryY=0.5;entryDx=0;entryDy=0;shadow=0;strokeColor=#ABABAB;" edge="1" parent="1" source="63" target="18"><mxGeometry relative="1" as="geometry"/></mxCell><mxCell id="63" value="@since 2.5&#10;annotationMetadata.getAnnotatedMethods" style="rounded=1;whiteSpace=wrap;gradientColor=#97d077;fillColor=#d5e8d4;strokeColor=#82b366;" vertex="1" parent="1"><mxGeometry x="-400" y="350" width="250" height="40" as="geometry"/></mxCell><mxCell id="64" style="edgeStyle=orthogonalEdgeStyle;curved=1;rounded=0;orthogonalLoop=1;jettySize=auto;html=1;exitX=0.5;exitY=0;exitDx=0;exitDy=0;entryX=0.5;entryY=1;entryDx=0;entryDy=0;" edge="1" parent="1" source="65" target="78"><mxGeometry relative="1" as="geometry"/></mxCell><mxCell id="65" value="[beans] &lt;&lt;interface&gt;&gt;&#10;BeanDefinitionRegistry&#10;定义对 BeanDefinition 的操作" style="swimlane;fontStyle=1;align=center;verticalAlign=top;childLayout=stackLayout;horizontal=1;startSize=50;horizontalStack=0;resizeParent=1;resizeParentMax=0;resizeLast=0;collapsible=1;marginBottom=0;rounded=1;shadow=0;glass=0;sketch=0;html=0;fillColor=#e51400;strokeColor=#B20000;fontColor=#ffffff;" vertex="1" parent="1"><mxGeometry x="1220" y="-90" width="190" height="70" as="geometry"><mxRectangle x="200" y="1001" width="260" height="26" as="alternateBounds"/></mxGeometry></mxCell><mxCell id="66" value="保存、删除、查找 ..." style="rounded=0;whiteSpace=wrap;shadow=0;glass=0;sketch=0;align=left;verticalAlign=top;" vertex="1" parent="65"><mxGeometry y="50" width="190" height="20" as="geometry"/></mxCell><mxCell id="67" style="edgeStyle=orthogonalEdgeStyle;curved=1;rounded=0;orthogonalLoop=1;jettySize=auto;html=1;exitX=0.5;exitY=0;exitDx=0;exitDy=0;entryX=0.75;entryY=1;entryDx=0;entryDy=0;" edge="1" parent="1" source="69" target="66"><mxGeometry relative="1" as="geometry"/></mxCell><mxCell id="68" style="edgeStyle=orthogonalEdgeStyle;curved=1;rounded=0;orthogonalLoop=1;jettySize=auto;html=1;exitX=0.75;exitY=0;exitDx=0;exitDy=0;entryX=0.75;entryY=1;entryDx=0;entryDy=0;" edge="1" parent="1" source="69" target="81"><mxGeometry relative="1" as="geometry"/></mxCell><mxCell id="69" value="[beans]&#10;SimpleBeanDefinitionRegistry&#10;存储 Map&lt;String, BeanDefinition&gt;" style="swimlane;fontStyle=1;align=center;verticalAlign=top;childLayout=stackLayout;horizontal=1;startSize=50;horizontalStack=0;resizeParent=1;resizeParentMax=0;resizeLast=0;collapsible=1;marginBottom=0;rounded=1;shadow=0;glass=0;sketch=0;html=0;flipH=1;fillColor=#dae8fc;strokeColor=#6c8ebf;" vertex="1" parent="1"><mxGeometry x="1440" y="50" width="200" height="70" as="geometry"><mxRectangle x="200" y="1001" width="260" height="26" as="alternateBounds"/></mxGeometry></mxCell><mxCell id="70" value="..." style="rounded=0;whiteSpace=wrap;shadow=0;glass=0;sketch=0;align=left;verticalAlign=top;" vertex="1" parent="69"><mxGeometry y="50" width="200" height="20" as="geometry"/></mxCell><mxCell id="71" style="edgeStyle=orthogonalEdgeStyle;rounded=0;orthogonalLoop=1;jettySize=auto;html=1;exitX=0.5;exitY=0;exitDx=0;exitDy=0;entryX=0.25;entryY=1;entryDx=0;entryDy=0;curved=1;" edge="1" parent="1" source="72" target="65"><mxGeometry relative="1" as="geometry"/></mxCell><mxCell id="72" value="[beans]&#10;DefaultListableBeanFactory&#10;存储 beanDefinitionMap" style="swimlane;fontStyle=1;align=center;verticalAlign=top;childLayout=stackLayout;horizontal=1;startSize=50;horizontalStack=0;resizeParent=1;resizeParentMax=0;resizeLast=0;collapsible=1;marginBottom=0;rounded=1;shadow=0;glass=0;sketch=0;html=0;flipH=1;fillColor=#e51400;strokeColor=#B20000;fontColor=#ffffff;" vertex="1" parent="1"><mxGeometry x="1000" y="50" width="180" height="80" as="geometry"><mxRectangle x="200" y="1001" width="260" height="26" as="alternateBounds"/></mxGeometry></mxCell><mxCell id="73" value="" style="rounded=0;whiteSpace=wrap;shadow=0;glass=0;sketch=0;align=left;verticalAlign=top;" vertex="1" parent="72"><mxGeometry y="50" width="180" height="30" as="geometry"/></mxCell><mxCell id="74" style="edgeStyle=orthogonalEdgeStyle;curved=1;rounded=0;orthogonalLoop=1;jettySize=auto;html=1;exitX=0.5;exitY=0;exitDx=0;exitDy=0;entryX=0.5;entryY=1;entryDx=0;entryDy=0;" edge="1" parent="1" source="76" target="65"><mxGeometry relative="1" as="geometry"/></mxCell><mxCell id="75" value="引用" style="edgeStyle=orthogonalEdgeStyle;curved=1;rounded=0;orthogonalLoop=1;jettySize=auto;html=1;exitX=0;exitY=0.5;exitDx=0;exitDy=0;entryX=1;entryY=0.5;entryDx=0;entryDy=0;" edge="1" parent="1" source="76" target="72"><mxGeometry relative="1" as="geometry"/></mxCell><mxCell id="76" value="[context]&#10;GenericApplicationContext" style="swimlane;fontStyle=1;align=center;verticalAlign=top;childLayout=stackLayout;horizontal=1;startSize=50;horizontalStack=0;resizeParent=1;resizeParentMax=0;resizeLast=0;collapsible=1;marginBottom=0;rounded=1;shadow=0;glass=0;sketch=0;html=0;fillColor=#d5e8d4;strokeColor=#82b366;flipH=1;" vertex="1" parent="1"><mxGeometry x="1225" y="50" width="180" height="80" as="geometry"><mxRectangle x="200" y="1001" width="260" height="26" as="alternateBounds"/></mxGeometry></mxCell><mxCell id="77" value="@Link ApplicationComtext" style="rounded=0;whiteSpace=wrap;shadow=0;glass=0;sketch=0;align=left;verticalAlign=top;" vertex="1" parent="76"><mxGeometry y="50" width="180" height="30" as="geometry"/></mxCell><mxCell id="78" value="[core] &lt;&lt;interface&gt;&gt;&#10;AliasRegistry&#10;为 Bean 创建别名" style="swimlane;fontStyle=1;align=center;verticalAlign=top;childLayout=stackLayout;horizontal=1;startSize=50;horizontalStack=0;resizeParent=1;resizeParentMax=0;resizeLast=0;collapsible=1;marginBottom=0;rounded=1;shadow=0;glass=0;sketch=0;html=0;fillColor=#fa6800;strokeColor=#C73500;fontColor=#ffffff;" vertex="1" parent="1"><mxGeometry x="1235" y="-200" width="160" height="70" as="geometry"><mxRectangle x="200" y="1001" width="260" height="26" as="alternateBounds"/></mxGeometry></mxCell><mxCell id="79" value="..." style="rounded=0;whiteSpace=wrap;shadow=0;glass=0;sketch=0;align=left;verticalAlign=top;" vertex="1" parent="78"><mxGeometry y="50" width="160" height="20" as="geometry"/></mxCell><mxCell id="80" style="edgeStyle=orthogonalEdgeStyle;curved=1;rounded=0;orthogonalLoop=1;jettySize=auto;html=1;exitX=0.5;exitY=0;exitDx=0;exitDy=0;entryX=0.75;entryY=1;entryDx=0;entryDy=0;" edge="1" parent="1" source="81" target="78"><mxGeometry relative="1" as="geometry"><mxPoint x="1350" y="-120" as="targetPoint"/></mxGeometry></mxCell><mxCell id="81" value="[core]&#10;SimpleAliasRegistry&#10;存储 Map&lt;alias,beanname&gt;" style="swimlane;fontStyle=1;align=center;verticalAlign=top;childLayout=stackLayout;horizontal=1;startSize=50;horizontalStack=0;resizeParent=1;resizeParentMax=0;resizeLast=0;collapsible=1;marginBottom=0;rounded=1;shadow=0;glass=0;sketch=0;html=0;flipH=1;fillColor=#dae8fc;strokeColor=#6c8ebf;" vertex="1" parent="1"><mxGeometry x="1440" y="-90" width="200" height="70" as="geometry"><mxRectangle x="200" y="1001" width="260" height="26" as="alternateBounds"/></mxGeometry></mxCell><mxCell id="82" value="..." style="rounded=0;whiteSpace=wrap;shadow=0;glass=0;sketch=0;align=left;verticalAlign=top;" vertex="1" parent="81"><mxGeometry y="50" width="200" height="20" as="geometry"/></mxCell><mxCell id="83" value="[beans] &lt;&lt;interface&gt;&gt;&#10;BeanDefinitionReader&#10;从 Resource 中解析读取 BeanDefinition" style="swimlane;fontStyle=1;align=center;verticalAlign=top;childLayout=stackLayout;horizontal=1;startSize=50;horizontalStack=0;resizeParent=1;resizeParentMax=0;resizeLast=0;collapsible=1;marginBottom=0;rounded=1;shadow=0;glass=0;sketch=0;html=0;flipH=1;fillColor=#e51400;strokeColor=#B20000;fontColor=#ffffff;" vertex="1" parent="1"><mxGeometry x="1241" y="290" width="299" height="110" as="geometry"><mxRectangle x="200" y="1001" width="260" height="26" as="alternateBounds"/></mxGeometry></mxCell><mxCell id="84" value="BeanDefinitionRegistry getRegistry" style="rounded=0;whiteSpace=wrap;shadow=0;glass=0;sketch=0;align=left;verticalAlign=top;" vertex="1" parent="83"><mxGeometry y="50" width="299" height="20" as="geometry"/></mxCell><mxCell id="85" value="ResourceLoader getResourceLoader" style="rounded=0;whiteSpace=wrap;shadow=0;glass=0;sketch=0;align=left;verticalAlign=top;" vertex="1" parent="83"><mxGeometry y="70" width="299" height="20" as="geometry"/></mxCell><mxCell id="86" value="loadBeanDefinitions FROM Resource OR locations" style="rounded=0;whiteSpace=wrap;shadow=0;glass=0;sketch=0;align=left;verticalAlign=top;" vertex="1" parent="83"><mxGeometry y="90" width="299" height="20" as="geometry"/></mxCell><mxCell id="87" style="edgeStyle=orthogonalEdgeStyle;curved=1;rounded=0;orthogonalLoop=1;jettySize=auto;html=1;exitX=0.5;exitY=0;exitDx=0;exitDy=0;entryX=0.5;entryY=1;entryDx=0;entryDy=0;" edge="1" parent="1" source="88" target="83"><mxGeometry relative="1" as="geometry"/></mxCell><mxCell id="88" value="[beans] &lt;&lt;abstract&gt;&gt;&#10;AbstractBeanDefinitionReader&#10;" style="swimlane;fontStyle=1;align=center;verticalAlign=top;childLayout=stackLayout;horizontal=1;startSize=50;horizontalStack=0;resizeParent=1;resizeParentMax=0;resizeLast=0;collapsible=1;marginBottom=0;rounded=1;shadow=0;glass=0;sketch=0;html=0;flipH=1;fillColor=#e51400;strokeColor=#B20000;fontColor=#ffffff;" vertex="1" parent="1"><mxGeometry x="1267.8100000000002" y="450" width="244.37" height="90" as="geometry"><mxRectangle x="200" y="1001" width="260" height="26" as="alternateBounds"/></mxGeometry></mxCell><mxCell id="89" value="把 locations 转换为 Resource，&#10;子类实现从 Resource 读取 BeanDefinition" style="rounded=0;whiteSpace=wrap;shadow=0;glass=0;sketch=0;align=left;verticalAlign=top;" vertex="1" parent="88"><mxGeometry y="50" width="244.37" height="40" as="geometry"/></mxCell><mxCell id="90" style="edgeStyle=orthogonalEdgeStyle;curved=1;rounded=0;orthogonalLoop=1;jettySize=auto;html=1;exitX=0.5;exitY=0;exitDx=0;exitDy=0;entryX=0.5;entryY=1;entryDx=0;entryDy=0;" edge="1" parent="1" source="92" target="88"><mxGeometry relative="1" as="geometry"><mxPoint x="1391" y="540" as="targetPoint"/></mxGeometry></mxCell><mxCell id="91" value="引用 Reader 读取" style="edgeStyle=orthogonalEdgeStyle;curved=1;rounded=0;orthogonalLoop=1;jettySize=auto;html=1;entryX=0.5;entryY=0;entryDx=0;entryDy=0;" edge="1" parent="1" source="92" target="102"><mxGeometry relative="1" as="geometry"/></mxCell><mxCell id="92" value="[beans]&#10;XmlBeanDefinitionReader&#10;从 XML 中读 BeanDefinition" style="swimlane;fontStyle=1;align=center;verticalAlign=top;childLayout=stackLayout;horizontal=1;startSize=50;horizontalStack=0;resizeParent=1;resizeParentMax=0;resizeLast=0;collapsible=1;marginBottom=0;rounded=1;shadow=0;glass=0;sketch=0;html=0;flipH=1;fillColor=#e51400;strokeColor=#B20000;fontColor=#ffffff;" vertex="1" parent="1"><mxGeometry x="1300.5" y="590" width="180" height="80" as="geometry"><mxRectangle x="200" y="1001" width="260" height="26" as="alternateBounds"/></mxGeometry></mxCell><mxCell id="93" value="" style="rounded=0;whiteSpace=wrap;shadow=0;glass=0;sketch=0;align=left;verticalAlign=top;" vertex="1" parent="92"><mxGeometry y="50" width="180" height="30" as="geometry"/></mxCell><mxCell id="94" style="edgeStyle=orthogonalEdgeStyle;curved=1;rounded=0;orthogonalLoop=1;jettySize=auto;html=1;exitX=0.5;exitY=0;exitDx=0;exitDy=0;entryX=0.25;entryY=1;entryDx=0;entryDy=0;" edge="1" parent="1" source="97" target="88"><mxGeometry relative="1" as="geometry"/></mxCell><mxCell id="95" style="edgeStyle=orthogonalEdgeStyle;curved=1;rounded=0;orthogonalLoop=1;jettySize=auto;html=1;exitX=0.5;exitY=1;exitDx=0;exitDy=0;entryX=0.5;entryY=0;entryDx=0;entryDy=0;" edge="1" parent="1" source="97" target="108"><mxGeometry relative="1" as="geometry"/></mxCell><mxCell id="96" value="引用 Reader 读取" style="edgeLabel;html=1;align=center;verticalAlign=middle;resizable=0;points=[];" vertex="1" connectable="0" parent="95"><mxGeometry x="-0.2079" relative="1" as="geometry"><mxPoint as="offset"/></mxGeometry></mxCell><mxCell id="97" value="[beans]&#10;PropertiesBeanDefinitionReader&#10;从 properties 文件读 BeanDefinition" style="swimlane;fontStyle=1;align=center;verticalAlign=top;childLayout=stackLayout;horizontal=1;startSize=50;horizontalStack=0;resizeParent=1;resizeParentMax=0;resizeLast=0;collapsible=1;marginBottom=0;rounded=1;shadow=0;glass=0;sketch=0;html=0;flipH=1;fillColor=#a0522d;strokeColor=#6D1F00;fontColor=#ffffff;" vertex="1" parent="1"><mxGeometry x="1006.25" y="590" width="220" height="80" as="geometry"><mxRectangle x="200" y="1001" width="260" height="26" as="alternateBounds"/></mxGeometry></mxCell><mxCell id="98" value="" style="rounded=0;whiteSpace=wrap;shadow=0;glass=0;sketch=0;align=left;verticalAlign=top;" vertex="1" parent="97"><mxGeometry y="50" width="220" height="30" as="geometry"/></mxCell><mxCell id="99" style="edgeStyle=orthogonalEdgeStyle;curved=1;rounded=0;orthogonalLoop=1;jettySize=auto;html=1;exitX=0.5;exitY=0;exitDx=0;exitDy=0;entryX=0.75;entryY=1;entryDx=0;entryDy=0;" edge="1" parent="1" source="100" target="88"><mxGeometry relative="1" as="geometry"/></mxCell><mxCell id="100" value="[beans]&#10;GroovyBeanDefinitionReader" style="swimlane;fontStyle=1;align=center;verticalAlign=top;childLayout=stackLayout;horizontal=1;startSize=50;horizontalStack=0;resizeParent=1;resizeParentMax=0;resizeLast=0;collapsible=1;marginBottom=0;rounded=1;shadow=0;glass=0;sketch=0;html=0;flipH=1;fillColor=#647687;strokeColor=#314354;fontColor=#ffffff;" vertex="1" parent="1"><mxGeometry x="1560" y="590" width="180" height="80" as="geometry"><mxRectangle x="200" y="1001" width="260" height="26" as="alternateBounds"/></mxGeometry></mxCell><mxCell id="101" value="" style="rounded=0;whiteSpace=wrap;shadow=0;glass=0;sketch=0;align=left;verticalAlign=top;" vertex="1" parent="100"><mxGeometry y="50" width="180" height="30" as="geometry"/></mxCell><mxCell id="102" value="[beans] &lt;&lt;interface&gt;&gt;&#10;BeanDefinitionDocumentReader&#10;" style="swimlane;fontStyle=1;align=center;verticalAlign=top;childLayout=stackLayout;horizontal=1;startSize=50;horizontalStack=0;resizeParent=1;resizeParentMax=0;resizeLast=0;collapsible=1;marginBottom=0;rounded=1;shadow=0;glass=0;sketch=0;html=0;flipH=1;fillColor=#f5f5f5;strokeColor=#666666;fontColor=#333333;" vertex="1" parent="1"><mxGeometry x="1270" y="720" width="240" height="60" as="geometry"><mxRectangle x="200" y="1001" width="260" height="26" as="alternateBounds"/></mxGeometry></mxCell><mxCell id="103" value="" style="rounded=0;whiteSpace=wrap;shadow=0;glass=0;sketch=0;align=left;verticalAlign=top;" vertex="1" parent="102"><mxGeometry y="50" width="240" height="10" as="geometry"/></mxCell><mxCell id="104" style="edgeStyle=orthogonalEdgeStyle;curved=1;rounded=0;orthogonalLoop=1;jettySize=auto;html=1;exitX=0.5;exitY=0;exitDx=0;exitDy=0;entryX=0.5;entryY=1;entryDx=0;entryDy=0;" edge="1" parent="1" source="106" target="102"><mxGeometry relative="1" as="geometry"/></mxCell><mxCell id="105" value="实现" style="edgeLabel;html=1;align=center;verticalAlign=middle;resizable=0;points=[];" vertex="1" connectable="0" parent="104"><mxGeometry x="0.0569" y="-1" relative="1" as="geometry"><mxPoint x="-0.5" as="offset"/></mxGeometry></mxCell><mxCell id="106" value="[beans]&#10;DefaultBeanDefinitionDocumentReader&#10;&lt;beans&gt; 解析器&#10;" style="swimlane;fontStyle=1;align=center;verticalAlign=top;childLayout=stackLayout;horizontal=1;startSize=50;horizontalStack=0;resizeParent=1;resizeParentMax=0;resizeLast=0;collapsible=1;marginBottom=0;rounded=1;shadow=0;glass=0;sketch=0;html=0;flipH=1;fillColor=#dae8fc;strokeColor=#6c8ebf;" vertex="1" parent="1"><mxGeometry x="1265.75" y="830" width="249.5" height="60" as="geometry"><mxRectangle x="200" y="1001" width="260" height="26" as="alternateBounds"/></mxGeometry></mxCell><mxCell id="107" value="" style="rounded=0;whiteSpace=wrap;shadow=0;glass=0;sketch=0;align=left;verticalAlign=top;" vertex="1" parent="106"><mxGeometry y="50" width="249.5" height="10" as="geometry"/></mxCell><mxCell id="108" value="[beans] &lt;&lt;interface&gt;&gt;&#10;PropertiesPersister&#10;" style="swimlane;fontStyle=1;align=center;verticalAlign=top;childLayout=stackLayout;horizontal=1;startSize=50;horizontalStack=0;resizeParent=1;resizeParentMax=0;resizeLast=0;collapsible=1;marginBottom=0;rounded=1;shadow=0;glass=0;sketch=0;html=0;flipH=1;fillColor=#f5f5f5;strokeColor=#666666;fontColor=#333333;" vertex="1" parent="1"><mxGeometry x="995.75" y="720" width="240" height="60" as="geometry"><mxRectangle x="200" y="1001" width="260" height="26" as="alternateBounds"/></mxGeometry></mxCell><mxCell id="109" value="" style="rounded=0;whiteSpace=wrap;shadow=0;glass=0;sketch=0;align=left;verticalAlign=top;" vertex="1" parent="108"><mxGeometry y="50" width="240" height="10" as="geometry"/></mxCell><mxCell id="110" style="edgeStyle=orthogonalEdgeStyle;curved=1;rounded=0;orthogonalLoop=1;jettySize=auto;html=1;exitX=0.5;exitY=0;exitDx=0;exitDy=0;entryX=0.5;entryY=1;entryDx=0;entryDy=0;" edge="1" parent="1" source="112" target="108"><mxGeometry relative="1" as="geometry"/></mxCell><mxCell id="111" value="实现" style="edgeLabel;html=1;align=center;verticalAlign=middle;resizable=0;points=[];" vertex="1" connectable="0" parent="110"><mxGeometry x="0.0569" y="-1" relative="1" as="geometry"><mxPoint x="-0.5" as="offset"/></mxGeometry></mxCell><mxCell id="112" value="[beans]&#10;DefaultPropertiesPersister&#10;&lt;beans&gt; 解析器&#10;" style="swimlane;fontStyle=1;align=center;verticalAlign=top;childLayout=stackLayout;horizontal=1;startSize=50;horizontalStack=0;resizeParent=1;resizeParentMax=0;resizeLast=0;collapsible=1;marginBottom=0;rounded=1;shadow=0;glass=0;sketch=0;html=0;flipH=1;fillColor=#dae8fc;strokeColor=#6c8ebf;" vertex="1" parent="1"><mxGeometry x="991" y="830" width="249.5" height="60" as="geometry"><mxRectangle x="200" y="1001" width="260" height="26" as="alternateBounds"/></mxGeometry></mxCell><mxCell id="113" value="" style="rounded=0;whiteSpace=wrap;shadow=0;glass=0;sketch=0;align=left;verticalAlign=top;" vertex="1" parent="112"><mxGeometry y="50" width="249.5" height="10" as="geometry"/></mxCell><mxCell id="114" value="[contenxt]&#10;AnnotatedBeanDefinitionReader&#10;@Bean 相关" style="swimlane;fontStyle=1;align=center;verticalAlign=top;childLayout=stackLayout;horizontal=1;startSize=50;horizontalStack=0;resizeParent=1;resizeParentMax=0;resizeLast=0;collapsible=1;marginBottom=0;rounded=1;shadow=0;glass=0;sketch=0;html=0;flipH=1;fillColor=#e51400;strokeColor=#B20000;fontColor=#ffffff;" vertex="1" parent="1"><mxGeometry x="1820" y="590" width="230" height="80" as="geometry"><mxRectangle x="200" y="1001" width="260" height="26" as="alternateBounds"/></mxGeometry></mxCell><mxCell id="115" value="" style="rounded=0;whiteSpace=wrap;shadow=0;glass=0;sketch=0;align=left;verticalAlign=top;fillColor=#f8cecc;strokeColor=#b85450;" vertex="1" parent="114"><mxGeometry y="50" width="230" height="30" as="geometry"/></mxCell><mxCell id="116" value="[contenxt]&#10;ClassPathBeanDefinitionScanner&#10;@Component 相关" style="swimlane;fontStyle=1;align=center;verticalAlign=top;childLayout=stackLayout;horizontal=1;startSize=50;horizontalStack=0;resizeParent=1;resizeParentMax=0;resizeLast=0;collapsible=1;marginBottom=0;rounded=1;shadow=0;glass=0;sketch=0;html=0;flipH=1;fillColor=#e51400;strokeColor=#B20000;fontColor=#ffffff;" vertex="1" parent="1"><mxGeometry x="2120" y="590" width="230" height="80" as="geometry"><mxRectangle x="200" y="1001" width="260" height="26" as="alternateBounds"/></mxGeometry></mxCell><mxCell id="117" value="" style="rounded=0;whiteSpace=wrap;shadow=0;glass=0;sketch=0;align=left;verticalAlign=top;fillColor=#f8cecc;strokeColor=#b85450;" vertex="1" parent="116"><mxGeometry y="50" width="230" height="30" as="geometry"/></mxCell></root></mxGraphModel></diagram></mxfile>